<svg width="45" height="44" viewBox="0 0 45 44" fill="none" xmlns="http://www.w3.org/2000/svg">
<rect x="0.754395" width="44" height="44" rx="8" fill="#EDF8F9"/>
<path d="M27.9462 18.6635C29.4896 19.7706 31.3803 20.4221 33.4223 20.4221V16.4786C33.0358 16.4787 32.6504 16.4382 32.2723 16.3579V19.4619C30.2304 19.4619 28.34 18.8105 26.7962 17.7034V25.7509C26.7962 29.7766 23.5443 33.0399 19.5331 33.0399C18.0364 33.0399 16.6453 32.5858 15.4897 31.807C16.8087 33.1604 18.648 34 20.6829 34C24.6943 34 27.9464 30.7367 27.9464 26.7108V18.6635H27.9462ZM29.3649 14.685C28.5762 13.8202 28.0583 12.7027 27.9462 11.4672V10.96H26.8564C27.1308 12.5303 28.0664 13.8719 29.3649 14.685ZM18.0268 28.7178C17.5862 28.1379 17.348 27.4286 17.3491 26.6992C17.3491 24.858 18.8365 23.3651 20.6715 23.3651C21.0135 23.365 21.3535 23.4176 21.6794 23.5214V19.4898C21.2985 19.4374 20.9141 19.4151 20.5299 19.4233V22.5613C20.2037 22.4575 19.8636 22.4048 19.5215 22.4051C17.6865 22.4051 16.1992 23.8979 16.1992 25.7393C16.1992 27.0414 16.9426 28.1687 18.0268 28.7178Z" fill="#FF004F"/>
<path d="M26.7962 17.7033C28.34 18.8104 30.2304 19.4618 32.2723 19.4618V16.3578C31.1325 16.1141 30.1235 15.5164 29.3649 14.685C28.0663 13.8718 27.1308 12.5302 26.8564 10.96H23.9939V26.7106C23.9874 28.5468 22.5025 30.0336 20.6714 30.0336C19.5923 30.0336 18.6337 29.5174 18.0266 28.7178C16.9425 28.1687 16.199 27.0413 16.199 25.7394C16.199 23.8981 17.6863 22.4052 19.5214 22.4052C19.873 22.4052 20.2119 22.4602 20.5297 22.5614V19.4234C16.589 19.5051 13.4197 22.7365 13.4197 26.7107C13.4197 28.6946 14.2089 30.493 15.4898 31.8071C16.6454 32.5858 18.0365 33.04 19.5332 33.04C23.5445 33.04 26.7963 29.7765 26.7963 25.7509V17.7033H26.7962Z" fill="black"/>
<path d="M32.2723 16.3578V15.5185C31.2445 15.52 30.2369 15.2312 29.3649 14.6849C30.1369 15.5331 31.1533 16.1179 32.2723 16.3578ZM26.8565 10.96C26.8303 10.8099 26.8102 10.6589 26.7963 10.5072V10H22.8438V25.7508C22.8375 27.5868 21.3527 29.0736 19.5214 29.0736C18.9838 29.0736 18.4762 28.9455 18.0266 28.7179C18.6337 29.5174 19.5924 30.0335 20.6714 30.0335C22.5024 30.0335 23.9875 28.5469 23.9939 26.7107V10.96H26.8565ZM20.5299 19.4234V18.5299C20.1997 18.4846 19.8667 18.4619 19.5333 18.462C15.5217 18.4619 12.2698 21.7254 12.2698 25.7508C12.2698 28.2745 13.5478 30.4987 15.4899 31.807C14.209 30.493 13.4198 28.6944 13.4198 26.7106C13.4198 22.7365 16.589 19.5051 20.5299 19.4234Z" fill="#00F2EA"/>
</svg>
