<svg width="45" height="44" viewBox="0 0 45 44" fill="none" xmlns="http://www.w3.org/2000/svg">
<rect x="0.754395" width="44" height="44" rx="8" fill="#EDF8F9"/>
<path d="M34.6872 17.052C34.6296 15.7742 34.4231 14.8999 34.1303 14.1361C33.823 13.3483 33.4149 12.6757 32.7476 12.0128C32.0803 11.3499 31.4129 10.9319 30.6256 10.6293C29.8622 10.3315 28.9884 10.1297 27.7114 10.0721C26.4295 10.0144 26.0214 10 22.7664 10C19.5065 10 19.0985 10.0144 17.8214 10.0721C16.5444 10.1297 15.6706 10.3363 14.9072 10.6293C14.1151 10.9367 13.4429 11.3451 12.7804 12.0128C12.1179 12.6805 11.7002 13.3483 11.3977 14.1361C11.1049 14.8999 10.8984 15.7742 10.8408 17.052C10.7832 18.3347 10.7688 18.743 10.7688 22C10.7688 25.2618 10.7832 25.6701 10.8408 26.948C10.8984 28.2258 11.1049 29.1001 11.3977 29.8639C11.705 30.6517 12.1131 31.3243 12.7804 31.9872C13.4429 32.6549 14.1151 33.0681 14.9024 33.3707C15.6658 33.6685 16.5396 33.8703 17.8166 33.9279C19.0985 33.9856 19.5065 34 22.7616 34C26.0214 34 26.4295 33.9856 27.7066 33.9279C28.9836 33.8703 29.8574 33.6637 30.6208 33.3707C31.4081 33.0633 32.0803 32.6549 32.7428 31.9872C33.4053 31.3195 33.823 30.6517 34.1255 29.8639C34.4231 29.1001 34.6248 28.2258 34.6824 26.948C34.74 25.6653 34.7544 25.257 34.7544 22C34.7544 18.743 34.7448 18.3299 34.6872 17.052ZM32.5316 26.8519C32.4787 28.024 32.2819 28.6629 32.1187 29.0809C31.9026 29.6381 31.6386 30.0416 31.2161 30.4644C30.7936 30.8871 30.3951 31.1417 29.8334 31.3675C29.4109 31.5308 28.7724 31.7278 27.6058 31.7806C26.3431 31.8383 25.9638 31.8527 22.7568 31.8527C19.5498 31.8527 19.1705 31.8383 17.9078 31.7806C16.7364 31.7278 16.0979 31.5308 15.6802 31.3675C15.1233 31.1513 14.72 30.8871 14.2975 30.4644C13.875 30.0416 13.6206 29.6429 13.3949 29.0809C13.2317 28.6581 13.0349 28.0192 12.982 26.8519C12.9244 25.5885 12.91 25.209 12.91 22C12.91 18.791 12.9244 18.4115 12.982 17.1481C13.0349 15.976 13.2317 15.3371 13.3949 14.9191C13.611 14.3619 13.875 13.9584 14.2975 13.5356C14.72 13.1129 15.1185 12.8583 15.6802 12.6325C16.1027 12.4692 16.7412 12.2722 17.9078 12.2194C19.1705 12.1617 19.5498 12.1473 22.7568 12.1473C25.9638 12.1473 26.3431 12.1617 27.6058 12.2194C28.7772 12.2722 29.4157 12.4692 29.8334 12.6325C30.3903 12.8487 30.7936 13.1129 31.2161 13.5356C31.6386 13.9584 31.893 14.3571 32.1187 14.9191C32.2819 15.3419 32.4787 15.9808 32.5316 17.1481C32.5892 18.4115 32.6036 18.791 32.6036 22C32.6036 25.209 32.5844 25.5885 32.5316 26.8519Z" fill="url(#paint0_linear_30_353)"/>
<path d="M22.7567 15.8318C19.348 15.8318 16.5923 18.594 16.5923 21.9999C16.5923 25.4107 19.3528 28.1681 22.7567 28.1681C26.1606 28.1681 28.9212 25.401 28.9212 21.9999C28.9212 18.5892 26.1654 15.8318 22.7567 15.8318ZM22.7567 26.0015C20.5483 26.0015 18.7575 24.2097 18.7575 21.9999C18.7575 19.7902 20.5483 17.9983 22.7567 17.9983C24.9652 17.9983 26.7559 19.7902 26.7559 21.9999C26.7559 24.2097 24.9652 26.0015 22.7567 26.0015Z" fill="url(#paint1_linear_30_353)"/>
<path d="M29.1612 17.0329C29.9567 17.0329 30.6015 16.3877 30.6015 15.5918C30.6015 14.7959 29.9567 14.1506 29.1612 14.1506C28.3658 14.1506 27.7209 14.7959 27.7209 15.5918C27.7209 16.3877 28.3658 17.0329 29.1612 17.0329Z" fill="#BC30A0"/>
<path d="M10.7544 22C10.7544 25.2618 10.7688 25.6701 10.8264 26.948C10.884 28.2258 11.0905 29.1001 11.3833 29.8639C11.6906 30.6517 12.0987 31.3243 12.766 31.9872C13.4285 32.6501 14.1007 33.0681 14.888 33.3707C15.6514 33.6685 16.5251 33.8703 17.8022 33.9279C19.0841 33.9856 19.4921 34 22.7472 34C26.007 34 26.4151 33.9856 27.6922 33.9279C28.9692 33.8703 29.843 33.6637 30.6064 33.3707C31.3937 33.0633 32.0659 32.6549 32.7284 31.9872C33.3909 31.3243 33.8086 30.6517 34.1111 29.8639C34.4087 29.1001 34.6104 28.2258 34.668 26.948C34.7256 25.6653 34.74 25.257 34.74 22C34.74 18.7382 34.7256 18.3299 34.668 17.052C34.6104 15.7742 34.4039 14.8999 34.1111 14.1361C33.8038 13.3483 33.3957 12.6757 32.7284 12.0128C32.0707 11.3451 31.3985 10.9319 30.6112 10.6293C29.8478 10.3315 28.974 10.1297 27.697 10.0721C26.4151 10.0144 26.007 10 22.752 10C19.4921 10 19.0841 10.0144 17.807 10.0721C16.5299 10.1297 15.6562 10.3363 14.8928 10.6293C14.1055 10.9367 13.4333 11.3451 12.7708 12.0128C12.1083 12.6805 11.6906 13.3483 11.3881 14.1361C11.0905 14.8999 10.884 15.7742 10.8264 17.052C10.7688 18.3299 10.7544 18.7382 10.7544 22ZM12.9196 22C12.9196 18.7958 12.934 18.4115 12.9916 17.1481C13.0445 15.976 13.2413 15.3371 13.4045 14.9191C13.6206 14.3619 13.8846 13.9584 14.3071 13.5356C14.7296 13.1129 15.1281 12.8583 15.6898 12.6325C16.1123 12.4692 16.7508 12.2722 17.9174 12.2194C19.1801 12.1617 19.5594 12.1473 22.7664 12.1473C25.9734 12.1473 26.3527 12.1617 27.6154 12.2194C28.7868 12.2722 29.4253 12.4692 29.843 12.6325C30.3999 12.8487 30.8032 13.1129 31.2257 13.5356C31.6482 13.9584 31.9026 14.3571 32.1283 14.9191C32.2915 15.3419 32.4883 15.9808 32.5412 17.1481C32.5988 18.4115 32.6132 18.791 32.6132 22C32.6132 25.209 32.5988 25.5885 32.5412 26.8519C32.4883 28.024 32.2915 28.6629 32.1283 29.0809C31.9122 29.6381 31.6482 30.0416 31.2257 30.4644C30.8032 30.8871 30.4047 31.1417 29.843 31.3675C29.4205 31.5308 28.782 31.7278 27.6154 31.7806C26.3527 31.8383 25.9734 31.8527 22.7664 31.8527C19.5594 31.8527 19.1801 31.8383 17.9174 31.7806C16.746 31.7278 16.1075 31.5308 15.6898 31.3675C15.1329 31.1513 14.7296 30.8871 14.3071 30.4644C13.8846 30.0416 13.6302 29.6429 13.4045 29.0809C13.2413 28.6581 13.0445 28.0192 12.9916 26.8519C12.9292 25.5885 12.9196 25.2042 12.9196 22Z" fill="url(#paint2_linear_30_353)"/>
<defs>
<linearGradient id="paint0_linear_30_353" x1="31.0499" y1="11.8352" x2="13.6874" y2="33.1076" gradientUnits="userSpaceOnUse">
<stop stop-color="#AE3DAE"/>
<stop offset="0.0468721" stop-color="#B23BA6"/>
<stop offset="0.1216" stop-color="#BD368E"/>
<stop offset="0.2148" stop-color="#CE2E69"/>
<stop offset="0.3216" stop-color="#E62335"/>
<stop offset="0.418" stop-color="#FF1800"/>
</linearGradient>
<linearGradient id="paint1_linear_30_353" x1="25.6966" y1="17.0528" x2="19.3892" y2="27.6513" gradientUnits="userSpaceOnUse">
<stop stop-color="#E12F6A"/>
<stop offset="0.1705" stop-color="#EA3751"/>
<stop offset="0.3563" stop-color="#F13D3E"/>
<stop offset="0.5467" stop-color="#F64133"/>
<stop offset="0.7469" stop-color="#F7422F"/>
<stop offset="0.7946" stop-color="#F74C2F"/>
<stop offset="0.8743" stop-color="#F7652F"/>
<stop offset="0.9757" stop-color="#F78F2E"/>
<stop offset="1" stop-color="#F79A2E"/>
</linearGradient>
<linearGradient id="paint2_linear_30_353" x1="28.1925" y1="9.01197" x2="17.5683" y2="34.3363" gradientUnits="userSpaceOnUse">
<stop offset="0.2341" stop-color="#9E35A5" stop-opacity="0"/>
<stop offset="0.4512" stop-color="#D42F7F" stop-opacity="0.5"/>
<stop offset="0.7524" stop-color="#F7772E"/>
<stop offset="0.9624" stop-color="#FEF780"/>
</linearGradient>
</defs>
</svg>
