<svg width="45" height="44" viewBox="0 0 45 44" fill="none" xmlns="http://www.w3.org/2000/svg">
<rect x="0.754395" width="44" height="44" rx="8" fill="#EDF8F9"/>
<g clip-path="url(#clip0_30_349)">
<path d="M34.2601 16.2294C33.9833 15.2014 33.1727 14.3909 32.1447 14.1141C30.2667 13.6001 22.7543 13.6001 22.7543 13.6001C22.7543 13.6001 15.242 13.6001 13.3639 14.0943C12.3557 14.3711 11.5254 15.2014 11.2486 16.2294C10.7544 18.1075 10.7544 22.002 10.7544 22.002C10.7544 22.002 10.7544 25.9164 11.2486 27.7747C11.5254 28.8027 12.3359 29.6132 13.3639 29.89C15.2618 30.404 22.7543 30.404 22.7543 30.404C22.7543 30.404 30.2667 30.404 32.1447 29.9097C33.1727 29.633 33.9833 28.8224 34.2601 27.7944C34.7543 25.9164 34.7543 22.0218 34.7543 22.0218C34.7543 22.0218 34.7741 18.1075 34.2601 16.2294Z" fill="#FF0000"/>
<path d="M20.3623 25.6001L26.6094 22.0021L20.3623 18.4041V25.6001Z" fill="white"/>
</g>
<defs>
<clipPath id="clip0_30_349">
<rect x="10.7544" y="10" width="24" height="24" rx="6" fill="white"/>
</clipPath>
</defs>
</svg>
