<svg width="197" height="122" viewBox="0 0 197 122" fill="none" xmlns="http://www.w3.org/2000/svg">
<path d="M11.8234 50.1589C9.55562 50.1589 7.44557 49.6605 5.49327 48.6643C3.54153 47.6674 1.71064 45.9296 0 43.4494L4.79628 37.5361C6.098 39.0421 7.37118 40.1276 8.61696 40.792C9.86218 41.4563 11.1544 41.7881 12.493 41.7881C13.1621 41.7881 13.7198 41.6222 14.1662 41.2897C14.612 40.9579 14.8352 40.5481 14.8352 40.061C14.8352 39.6178 14.6959 39.2413 14.4168 38.9315C14.1382 38.6216 13.5805 38.3111 12.7436 38.0013C11.9073 37.6914 10.6895 37.2929 9.09076 36.8058C6.15336 35.9196 3.9969 34.6461 2.62134 32.9856C1.24578 31.3244 0.557708 29.1434 0.557708 26.442C0.557708 24.4489 1.00411 22.6217 1.89635 20.9605C2.78859 19.3 4.07129 17.9713 5.74445 16.9744C7.4176 15.9782 9.38838 15.4797 11.6562 15.4797C14.3704 15.4797 16.6756 16.0781 18.572 17.2736C20.4684 18.4697 22.0481 19.909 23.3123 21.5922L18.0143 27.2389C17.122 26.3087 16.0715 25.5557 14.8632 24.98C13.6549 24.4042 12.3442 24.1164 10.9312 24.1164C10.1877 24.1164 9.57408 24.2603 9.09076 24.5482C8.60744 24.8361 8.36579 25.2459 8.36579 25.7776C8.36579 26.2647 8.69135 26.6965 9.34193 27.073C9.99251 27.4495 11.3401 27.9253 13.3853 28.501C16.7685 29.4759 19.2226 30.8153 20.7469 32.5205C22.2713 34.2257 23.0338 36.5179 23.0338 39.3966C23.0338 41.5223 22.5594 43.3934 21.6118 45.01C20.6636 46.6266 19.3434 47.8893 17.6518 48.7969C15.9602 49.7051 14.0174 50.1589 11.8234 50.1589Z" fill="#59A9FE"/>
<path d="M40.6575 49.9592C38.2779 49.9592 36.2142 49.3168 34.4667 48.0327C32.7191 46.748 31.362 44.8435 30.3954 42.3194C29.4288 39.7946 28.9454 36.628 28.9454 32.8191C28.9454 29.2755 29.4383 26.2309 30.4234 23.6841C31.4085 21.1372 32.7846 19.1668 34.5506 17.7715C36.3166 16.3761 38.3707 15.6785 40.7129 15.6785C43.2045 15.6785 45.3889 16.4208 47.2663 17.9041C49.1442 19.3881 50.6126 21.4145 51.6721 23.9833C52.7321 26.5521 53.2619 29.4974 53.2619 32.8191C53.2619 36.1409 52.7226 39.0969 51.6441 41.6883C50.5661 44.2791 49.0698 46.3055 47.1549 47.7669C45.2401 49.2282 43.0741 49.9592 40.6575 49.9592ZM25.1527 61.7183V16.5421H31.8453L34.1881 25.4446H33.6858V39.5287H34.1881V61.7183H25.1527ZM38.9284 39.5953C40.3784 39.5953 41.5962 38.9643 42.5813 37.7022C43.567 36.4395 44.0592 34.8122 44.0592 32.8191C44.0592 30.8701 43.567 29.2428 42.5813 27.9361C41.5962 26.6294 40.3784 25.9763 38.9284 25.9763C37.4785 25.9763 36.2517 26.6294 35.2476 27.9361C34.2435 29.2428 33.7417 30.8701 33.7417 32.8191C33.7417 34.8122 34.2435 36.4395 35.2476 37.7022C36.2517 38.9643 37.4785 39.5953 38.9284 39.5953Z" fill="#59A9FE"/>
<path d="M67.2605 49.6933C64.5094 49.6933 62.1017 49.0069 60.0381 47.6343C57.9745 46.2609 56.3668 44.3125 55.2139 41.7876C54.0615 39.2635 53.4854 36.2735 53.4854 32.8191C53.4854 29.4974 54.0615 26.5521 55.2139 23.9833C56.3668 21.4145 57.9745 19.3881 60.0381 17.9041C62.1017 16.4208 64.5094 15.6785 67.2605 15.6785C70.1235 15.6785 72.5776 16.4534 74.6222 18.004C76.6674 19.554 78.2476 21.6024 79.3631 24.1492C80.4785 26.696 81.0363 29.5413 81.0363 32.6859C81.0363 33.3949 81.0178 34.0372 80.9803 34.613C80.9434 35.1887 80.8874 35.6538 80.813 36.0077H60.2334V28.6997H73.8418L73.0609 31.0919C73.0609 29.0102 72.5961 27.305 71.6663 25.9763C70.7372 24.6476 69.3057 23.9833 67.3724 23.9833C65.5874 23.9833 64.1749 24.603 63.1333 25.8431C62.0922 27.0832 61.572 28.7444 61.572 30.8261V34.4797C61.572 36.7387 62.1297 38.4772 63.2452 39.6953C64.3606 40.9127 65.9219 41.5218 67.9301 41.5218C69.5289 41.5218 70.8021 41.1566 71.7502 40.4256C72.6984 39.6953 73.4883 38.7537 74.1204 37.6023L80.144 41.4558C78.9911 43.98 77.2995 45.9844 75.0686 47.4677C72.8377 48.9516 70.2348 49.6933 67.2605 49.6933Z" fill="#59A9FE"/>
<path d="M91.5774 49.4276C90.0899 49.4276 88.6959 49.0844 87.3948 48.3981C86.093 47.7118 85.043 46.5936 84.2437 45.043C83.4443 43.493 83.0443 41.4333 83.0443 38.8645V3.85352H92.0237V35.0776C92.0237 36.7609 92.2559 37.835 92.7208 38.3001C93.1856 38.7653 93.8267 38.9978 94.6445 38.9978V49.1624C94.31 49.251 93.8362 49.317 93.2225 49.3616C92.6089 49.4056 92.0607 49.4276 91.5774 49.4276Z" fill="#59A9FE"/>
<path d="M105.408 49.4276C103.921 49.4276 102.527 49.0844 101.225 48.3981C99.9243 47.7118 98.8737 46.5936 98.0743 45.043C97.275 43.493 96.875 41.4333 96.875 38.8645V3.85352H105.854V35.0776C105.854 36.7609 106.087 37.835 106.551 38.3001C107.016 38.7653 107.658 38.9978 108.476 38.9978V49.1624C108.141 49.251 107.667 49.317 107.053 49.3616C106.44 49.4056 105.891 49.4276 105.408 49.4276Z" fill="#59A9FE"/>
<path d="M119.853 49.0958H110.762V16.5423H119.853V49.0958ZM110.093 6.2451C110.093 4.34065 110.576 2.82402 111.543 1.69454C112.51 0.56507 113.774 0 115.336 0C116.934 0 118.199 0.56507 119.128 1.69454C120.058 2.82402 120.522 4.34065 120.522 6.2451C120.522 8.06092 120.058 9.53357 119.128 10.663C118.199 11.7925 116.934 12.3569 115.336 12.3569C113.774 12.3569 112.51 11.7925 111.543 10.663C110.576 9.53357 110.093 8.06092 110.093 6.2451Z" fill="#59A9FE"/>
<path d="M140.767 15.6785C142.589 15.6785 144.076 16.0549 145.229 16.8079C146.381 17.5609 147.274 18.5685 147.906 19.8312C148.538 21.0933 148.975 22.5213 149.216 24.1159C149.458 25.7105 149.579 27.371 149.579 29.0989V49.0956H140.544V30.361C140.544 28.6777 140.321 27.5703 139.875 27.0392C139.429 26.5074 138.778 26.2415 137.923 26.2415C137.291 26.2415 136.622 26.3861 135.915 26.674C135.209 26.9619 134.512 27.3823 133.824 27.9361C133.135 28.4898 132.457 29.1429 131.788 29.8958L129.836 24.5143H132.625V49.0956H123.589V16.5421H130.282L132.067 23.2523L128.776 22.8538C129.706 21.6137 130.793 20.4509 132.039 19.3661C133.284 18.2806 134.641 17.395 136.11 16.7086C137.579 16.0216 139.131 15.6785 140.767 15.6785Z" fill="#59A9FE"/>
<path d="M164.805 62.4487C163.355 62.4487 161.858 62.1835 160.315 61.6517C158.773 61.1206 157.341 60.2457 156.021 59.0276C154.701 57.8095 153.632 56.1596 152.814 54.0779L152.312 52.8825L158.726 49.0956C159.618 50.7341 160.52 51.9083 161.431 52.6166C162.342 53.3249 163.504 53.6794 164.916 53.6794C166.441 53.6794 167.696 53.093 168.681 51.9189C169.666 50.7455 170.159 48.985 170.159 46.6374V37.2704H170.717V25.378H170.159L172.501 16.5421H179.194V44.2458C179.194 48.0987 178.636 51.3765 177.521 54.0779C176.405 56.78 174.779 58.8504 172.641 60.2897C170.503 61.729 167.891 62.4487 164.805 62.4487ZM163.578 47.4343C161.161 47.4343 159.005 46.7593 157.108 45.4086C155.212 44.0573 153.725 42.1861 152.647 39.7946C151.569 37.403 151.029 34.6789 151.029 31.623C151.029 28.5671 151.559 25.8324 152.619 23.4182C153.679 21.0046 155.138 19.1109 156.997 17.7382C158.856 16.3655 160.994 15.6785 163.41 15.6785C165.641 15.6785 167.594 16.3541 169.267 17.7048C170.94 19.0556 172.251 20.916 173.199 23.2856C174.146 25.6551 174.621 28.4345 174.621 31.623C174.621 34.9448 174.165 37.7908 173.254 40.1597C172.343 42.5293 171.061 44.3345 169.406 45.5745C167.751 46.8146 165.809 47.4343 163.578 47.4343ZM165.419 38.0007C166.906 38.0007 168.142 37.3917 169.128 36.1736C170.113 34.9562 170.605 33.4389 170.605 31.623C170.605 29.7186 170.113 28.1573 169.128 26.9392C168.142 25.7218 166.906 25.1127 165.419 25.1127C163.894 25.1127 162.639 25.7218 161.654 26.9392C160.669 28.1573 160.176 29.7186 160.176 31.623C160.176 33.4389 160.669 34.9562 161.654 36.1736C162.639 37.3917 163.894 38.0007 165.419 38.0007Z" fill="#59A9FE"/>
<path d="M190.373 49.8925C189.257 49.8925 188.235 49.5606 187.305 48.8963C186.376 48.2319 185.641 47.3464 185.102 46.2389C184.563 45.1314 184.294 43.9359 184.294 42.6512C184.294 41.3225 184.563 40.1157 185.102 39.0309C185.641 37.9454 186.376 37.0705 187.305 36.4061C188.235 35.7418 189.239 35.4099 190.317 35.4099C191.507 35.4099 192.557 35.7418 193.468 36.4061C194.379 37.0705 195.104 37.9454 195.643 39.0309C196.182 40.1157 196.452 41.3225 196.452 42.6512C196.452 43.9359 196.182 45.1314 195.643 46.2389C195.104 47.3464 194.379 48.2319 193.468 48.8963C192.557 49.5606 191.525 49.8925 190.373 49.8925Z" fill="#AECC39"/>
<path d="M11.8234 122C9.55562 122 7.44557 121.502 5.49327 120.505C3.54153 119.509 1.71064 117.771 0 115.29L4.79628 109.377C6.098 110.883 7.37118 111.969 8.61696 112.633C9.86218 113.297 11.1544 113.629 12.493 113.629C13.1621 113.629 13.7198 113.463 14.1662 113.131C14.612 112.799 14.8352 112.389 14.8352 111.902C14.8352 111.459 14.6959 111.082 14.4168 110.773C14.1382 110.463 13.5805 110.153 12.7436 109.842C11.9073 109.532 10.6895 109.134 9.09076 108.647C6.15336 107.761 3.9969 106.487 2.62134 104.827C1.24578 103.166 0.557708 100.984 0.557708 98.283C0.557708 96.29 1.00411 94.4628 1.89635 92.8016C2.78859 91.141 4.07129 89.8123 5.74445 88.8161C7.4176 87.8192 9.38838 87.3208 11.6562 87.3208C14.3704 87.3208 16.6756 87.9192 18.572 89.1146C20.4684 90.3107 22.0481 91.7501 23.3123 93.4333L18.0143 99.08C17.122 98.1498 16.0715 97.3968 14.8632 96.821C13.6549 96.2453 12.3442 95.9574 10.9312 95.9574C10.1877 95.9574 9.57408 96.1014 9.09076 96.3892C8.60744 96.6771 8.36579 97.0869 8.36579 97.6187C8.36579 98.1058 8.69135 98.5376 9.34193 98.9141C9.99251 99.2905 11.3401 99.7663 13.3853 100.342C16.7685 101.317 19.2226 102.656 20.7469 104.362C22.2713 106.067 23.0338 108.359 23.0338 111.238C23.0338 113.363 22.5594 115.235 21.6118 116.852C20.6636 118.468 19.3434 119.73 17.6518 120.638C15.9602 121.546 14.0174 122 11.8234 122Z" fill="#FE645A"/>
<path d="M37.5899 121.801C34.8014 121.801 32.3568 121.07 30.2563 119.608C28.1557 118.147 26.51 116.109 25.3201 113.497C24.1308 110.883 23.5356 107.916 23.5356 104.594C23.5356 101.317 24.1308 98.3936 25.3201 95.8248C26.51 93.256 28.1557 91.2296 30.2563 89.7456C32.3568 88.2623 34.8014 87.52 37.5899 87.52C40.7505 87.52 43.4647 88.4283 45.7325 90.2441C48.0009 92.0599 49.6181 94.4961 50.5848 97.552L42.4981 101.937C42.0148 100.697 41.4011 99.733 40.6577 99.0467C39.9137 98.3603 38.9286 98.0171 37.7018 98.0171C36.2519 98.0171 35.0341 98.6149 34.0484 99.811C33.0633 101.006 32.5705 102.601 32.5705 104.594C32.5705 106.676 33.0633 108.304 34.0484 109.477C35.0341 110.651 36.2519 111.238 37.7018 111.238C38.9286 111.238 39.9137 110.905 40.6577 110.241C41.4011 109.577 42.0148 108.647 42.4981 107.451L50.5848 111.703C49.6181 114.759 47.9914 117.206 45.7051 119.044C43.4183 120.882 40.7131 121.801 37.5899 121.801Z" fill="#FE645A"/>
<path d="M51.979 120.937V75.6948H61.0138V120.937H51.979ZM68.9332 120.937V102.202C68.9332 100.519 68.71 99.4125 68.2642 98.8807C67.8178 98.349 67.1672 98.0837 66.3119 98.0837C65.6798 98.0837 65.0107 98.2277 64.3042 98.5155C63.5977 98.8034 62.9007 99.2239 62.2126 99.7776C61.5251 100.331 60.8466 100.984 60.177 101.737L57.1657 94.6953C58.0949 93.4552 59.1824 92.2924 60.4282 91.2076C61.6739 90.1221 63.031 89.2365 64.4995 88.5502C65.9684 87.8638 67.5202 87.52 69.1564 87.52C70.9784 87.52 72.4653 87.8965 73.6182 88.6495C74.7706 89.4025 75.6634 90.41 76.2949 91.6727C76.927 92.9348 77.3639 94.3628 77.6056 95.9574C77.8472 97.552 77.9681 99.2126 77.9681 100.94V120.937H68.9332Z" fill="#FE645A"/>
<path d="M93.8637 121.801C91.0007 121.801 88.4907 121.07 86.3342 119.608C84.1777 118.147 82.4861 116.131 81.2594 113.563C80.0321 110.994 79.4189 108.048 79.4189 104.727C79.4189 101.361 80.0321 98.3936 81.2594 95.8248C82.4861 93.256 84.1777 91.2296 86.3342 89.7456C88.4907 88.2623 91.0007 87.52 93.8637 87.52C96.7636 87.52 99.3011 88.2623 101.477 89.7456C103.652 91.2296 105.343 93.256 106.551 95.8248C107.76 98.3936 108.364 101.361 108.364 104.727C108.364 108.048 107.76 110.994 106.551 113.563C105.343 116.131 103.652 118.147 101.477 119.608C99.3011 121.07 96.7636 121.801 93.8637 121.801ZM93.8637 111.304C95.425 111.304 96.7077 110.695 97.7118 109.477C98.7154 108.259 99.2177 106.654 99.2177 104.661C99.2177 102.668 98.7154 101.062 97.7118 99.8443C96.7077 98.6262 95.425 98.0171 93.8637 98.0171C92.3394 98.0171 91.0751 98.6262 90.071 99.8443C89.0674 101.062 88.5651 102.668 88.5651 104.661C88.5651 106.609 89.0674 108.204 90.071 109.444C91.0751 110.684 92.3394 111.304 93.8637 111.304Z" fill="#FE645A"/>
<path d="M123.144 121.801C120.281 121.801 117.771 121.07 115.614 119.608C113.458 118.147 111.766 116.131 110.539 113.563C109.312 110.994 108.699 108.048 108.699 104.727C108.699 101.361 109.312 98.3936 110.539 95.8248C111.766 93.256 113.458 91.2296 115.614 89.7456C117.771 88.2623 120.281 87.52 123.144 87.52C126.044 87.52 128.581 88.2623 130.756 89.7456C132.931 91.2296 134.623 93.256 135.831 95.8248C137.04 98.3936 137.644 101.361 137.644 104.727C137.644 108.048 137.04 110.994 135.831 113.563C134.623 116.131 132.931 118.147 130.756 119.608C128.581 121.07 126.044 121.801 123.144 121.801ZM123.144 111.304C124.705 111.304 125.988 110.695 126.992 109.477C127.995 108.259 128.498 106.654 128.498 104.661C128.498 102.668 127.995 101.062 126.992 99.8443C125.988 98.6262 124.705 98.0171 123.144 98.0171C121.619 98.0171 120.355 98.6262 119.351 99.8443C118.347 101.062 117.845 102.668 117.845 104.661C117.845 106.609 118.347 108.204 119.351 109.444C120.355 110.684 121.619 111.304 123.144 111.304Z" fill="#FE645A"/>
<path d="M147.85 121.27C146.363 121.27 144.969 120.926 143.668 120.239C142.366 119.553 141.316 118.435 140.517 116.884C139.717 115.334 139.317 113.275 139.317 110.706V75.6948H148.297V106.92C148.297 108.602 148.529 109.676 148.994 110.141C149.458 110.607 150.1 110.839 150.918 110.839V121.004C150.583 121.092 150.109 121.158 149.495 121.203C148.882 121.247 148.334 121.27 147.85 121.27Z" fill="#FE645A"/>
</svg>
