<svg width="537" height="245" viewBox="0 0 537 245" fill="none" xmlns="http://www.w3.org/2000/svg">
<path d="M32.3157 113.832C26.1174 113.832 20.3502 112.701 15.0142 110.44C9.67971 108.177 4.67551 104.233 0 98.6049L13.1092 85.1852C16.667 88.6028 20.1469 91.0663 23.5518 92.574C26.9553 94.0817 30.4871 94.8348 34.1459 94.8348C35.9745 94.8348 37.4989 94.4583 38.719 93.7037C39.9375 92.9506 40.5476 92.0205 40.5476 90.9151C40.5476 89.9094 40.1669 89.055 39.4039 88.3518C38.6425 87.6486 37.1182 86.9439 34.8309 86.2407C32.5451 85.5375 29.2166 84.6332 24.8468 83.5277C16.8183 81.5164 10.9243 78.6265 7.16464 74.858C3.40496 71.0879 1.52432 66.1383 1.52432 60.0077C1.52432 55.4845 2.74443 51.338 5.18309 47.5679C7.62176 43.7994 11.1276 40.784 15.7007 38.5216C20.2738 36.2608 25.6603 35.1296 31.8586 35.1296C39.277 35.1296 45.5778 36.4876 50.7609 39.2006C55.944 41.9151 60.2618 45.1816 63.7172 49.0015L49.2366 61.8163C46.7979 59.7052 43.9265 57.9964 40.624 56.6898C37.3215 55.3832 33.7392 54.7299 29.8771 54.7299C27.8451 54.7299 26.1678 55.0566 24.8468 55.7099C23.5258 56.3632 22.8653 57.2932 22.8653 58.5C22.8653 59.6054 23.7552 60.5854 25.5333 61.4398C27.3115 62.2942 30.9947 63.3739 36.5845 64.6805C45.8316 66.8929 52.5391 69.9326 56.7054 73.8024C60.8718 77.6723 62.9558 82.8744 62.9558 89.4073C62.9558 94.2314 61.6592 98.4778 59.0692 102.147C56.4777 105.815 52.8693 108.681 48.2458 110.741C43.6223 112.802 38.3123 113.832 32.3157 113.832Z" fill="#59A9FE"/>
<path d="M111.126 113.379C104.622 113.379 98.9812 111.922 94.2048 109.007C89.4284 106.092 85.7192 101.77 83.0772 96.0414C80.4352 90.3115 79.1142 83.1253 79.1142 74.4813C79.1142 66.4391 80.4612 59.5296 83.1536 53.7498C85.8461 47.97 89.6073 43.4983 94.4342 40.3316C99.261 37.1649 104.875 35.5816 111.277 35.5816C118.087 35.5816 124.057 37.2663 129.189 40.6325C134.321 44.0003 138.335 48.5991 141.231 54.4288C144.128 60.2585 145.576 66.9427 145.576 74.4813C145.576 82.0198 144.102 88.7282 141.154 94.6093C138.208 100.489 134.118 105.088 128.884 108.404C123.651 111.72 117.731 113.379 111.126 113.379ZM68.7479 140.066V37.5415H87.0402L93.4434 57.7451H92.0704V89.7081H93.4434V140.066H68.7479ZM106.4 89.8593C110.363 89.8593 113.691 88.4272 116.384 85.563C119.078 82.6973 120.423 79.0044 120.423 74.4813C120.423 70.0579 119.078 66.365 116.384 63.3995C113.691 60.4339 110.363 58.9519 106.4 58.9519C102.437 58.9519 99.0837 60.4339 96.3392 63.3995C93.5948 66.365 92.2233 70.0579 92.2233 74.4813C92.2233 79.0044 93.5948 82.6973 96.3392 85.563C99.0837 88.4272 102.437 89.8593 106.4 89.8593Z" fill="#59A9FE"/>
<path d="M183.836 112.776C176.316 112.776 169.736 111.218 164.095 108.103C158.455 104.986 154.061 100.565 150.91 94.8346C147.76 89.1062 146.185 82.3208 146.185 74.4813C146.185 66.9427 147.76 60.2585 150.91 54.4288C154.061 48.5991 158.455 44.0003 164.095 40.6325C169.736 37.2663 176.316 35.5816 183.836 35.5816C191.661 35.5816 198.368 37.3404 203.956 40.8594C209.546 44.3769 213.866 49.0255 216.914 54.8053C219.963 60.5852 221.487 67.0425 221.487 74.1788C221.487 75.7878 221.437 77.2456 221.334 78.5522C221.234 79.8588 221.081 80.9144 220.877 81.7174H164.629V65.1325H201.824L199.689 70.5615C199.689 65.8372 198.419 61.9674 195.878 58.9519C193.338 55.9365 189.425 54.4288 184.141 54.4288C179.262 54.4288 175.402 55.8352 172.555 58.6495C169.71 61.4638 168.288 65.2338 168.288 69.9581V78.2498C168.288 83.3763 169.812 87.3218 172.861 90.0862C175.909 92.849 180.177 94.2312 185.666 94.2312C190.035 94.2312 193.515 93.4025 196.107 91.7436C198.698 90.0862 200.857 87.9494 202.585 85.3362L219.049 94.0815C215.898 99.8099 211.274 104.359 205.177 107.725C199.079 111.093 191.965 112.776 183.836 112.776Z" fill="#59A9FE"/>
<path d="M250.298 112.172C246.232 112.172 242.422 111.394 238.866 109.836C235.308 108.278 232.438 105.741 230.253 102.222C228.069 98.7044 226.975 94.03 226.975 88.2003V8.74515H251.518V79.6062C251.518 83.4261 252.152 85.8639 253.423 86.9194C254.694 87.975 256.446 88.5028 258.681 88.5028V111.571C257.767 111.772 256.472 111.921 254.794 112.023C253.117 112.123 251.619 112.172 250.298 112.172Z" fill="#59A9FE"/>
<path d="M288.101 112.172C284.037 112.172 280.225 111.394 276.669 109.836C273.112 108.278 270.241 105.741 268.056 102.222C265.871 98.7044 264.778 94.03 264.778 88.2003V8.74515H289.321V79.6062C289.321 83.4261 289.955 85.8639 291.226 86.9194C292.496 87.975 294.25 88.5028 296.485 88.5028V111.571C295.571 111.772 294.274 111.921 292.597 112.023C290.921 112.123 289.422 112.172 288.101 112.172Z" fill="#59A9FE"/>
<path d="M327.581 111.42H302.734V37.5416H327.581V111.42ZM300.906 14.1728C300.906 9.85081 302.227 6.40892 304.869 3.84565C307.511 1.28239 310.966 0 315.235 0C319.605 0 323.06 1.28239 325.6 3.84565C328.141 6.40892 329.411 9.85081 329.411 14.1728C329.411 18.2937 328.141 21.6358 325.6 24.1991C323.06 26.7623 319.605 28.0432 315.235 28.0432C310.966 28.0432 307.511 26.7623 304.869 24.1991C302.227 21.6358 300.906 18.2937 300.906 14.1728Z" fill="#59A9FE"/>
<path d="M384.745 35.5816C389.724 35.5816 393.789 36.436 396.94 38.1449C400.09 39.8537 402.529 42.1403 404.256 45.006C405.984 47.8702 407.178 51.1109 407.839 54.7297C408.499 58.3486 408.829 62.1171 408.829 66.0383V111.419H384.135V68.9026C384.135 65.0826 383.525 62.5692 382.305 61.364C381.087 60.1572 379.308 59.5538 376.971 59.5538C375.243 59.5538 373.414 59.882 371.483 60.5353C369.552 61.1885 367.647 62.1428 365.767 63.3995C363.886 64.6562 362.031 66.1382 360.203 67.847L354.868 55.6341H362.49V111.419H337.795V37.5415H356.087L360.966 52.7699L351.971 51.8655C354.512 49.0512 357.484 46.4124 360.889 43.9504C364.293 41.487 368.002 39.4772 372.017 37.9196C376.03 36.3604 380.273 35.5816 384.745 35.5816Z" fill="#59A9FE"/>
<path d="M450.444 141.723C446.481 141.723 442.39 141.122 438.173 139.915C433.956 138.71 430.044 136.724 426.435 133.96C422.829 131.195 419.907 127.451 417.671 122.727L416.298 120.014L433.829 111.419C436.268 115.138 438.733 117.803 441.222 119.41C443.712 121.018 446.888 121.822 450.749 121.822C454.915 121.822 458.346 120.491 461.038 117.827C463.731 115.164 465.078 111.168 465.078 105.841V84.5831H466.602V57.594H465.078L471.48 37.5415H489.772V100.413C489.772 109.157 488.247 116.596 485.199 122.727C482.15 128.859 477.704 133.557 471.862 136.824C466.018 140.09 458.879 141.723 450.444 141.723ZM447.091 107.649C440.485 107.649 434.591 106.118 429.408 103.052C424.226 99.9854 420.16 95.7389 417.213 90.3115C414.266 84.884 412.792 78.7019 412.792 71.7667C412.792 64.8316 414.24 58.6253 417.138 53.1464C420.034 47.669 424.023 43.3712 429.103 40.256C434.184 37.1407 440.028 35.5816 446.633 35.5816C452.73 35.5816 458.066 37.115 462.639 40.1804C467.212 43.2457 470.794 47.4679 473.386 52.8455C475.976 58.223 477.273 64.5306 477.273 71.7667C477.273 79.3053 476.028 85.7641 473.537 91.1402C471.048 96.5178 467.542 100.614 463.02 103.429C458.497 106.243 453.187 107.649 447.091 107.649ZM452.122 86.2405C456.185 86.2405 459.564 84.8583 462.258 82.0939C464.951 79.331 466.298 75.8876 466.298 71.7667C466.298 67.4447 464.951 63.9015 462.258 61.1371C459.564 58.3743 456.185 56.9921 452.122 56.9921C447.954 56.9921 444.524 58.3743 441.832 61.1371C439.139 63.9015 437.792 67.4447 437.792 71.7667C437.792 75.8876 439.139 79.331 441.832 82.0939C444.524 84.8583 447.954 86.2405 452.122 86.2405Z" fill="#59A9FE"/>
<path d="M520.326 113.228C517.278 113.228 514.483 112.475 511.941 110.967C509.402 109.459 507.394 107.45 505.921 104.936C504.447 102.423 503.711 99.7099 503.711 96.7943C503.711 93.7788 504.447 91.0401 505.921 88.5782C507.394 86.1147 509.402 84.1291 511.941 82.6214C514.483 81.1137 517.227 80.3606 520.173 80.3606C523.425 80.3606 526.297 81.1137 528.786 82.6214C531.276 84.1291 533.258 86.1147 534.73 88.5782C536.204 91.0401 536.941 93.7788 536.941 96.7943C536.941 99.7099 536.204 102.423 534.73 104.936C533.258 107.45 531.276 109.459 528.786 110.967C526.297 112.475 523.476 113.228 520.326 113.228Z" fill="#FE645A"/>
<path d="M32.3157 245C26.1174 245 20.3502 243.869 15.0142 241.608C9.67971 239.347 4.67551 235.402 0 229.773L13.1092 216.353C16.667 219.771 20.1469 222.235 23.5518 223.742C26.9553 225.25 30.4871 226.003 34.1459 226.003C35.9745 226.003 37.4989 225.627 38.719 224.872C39.9375 224.119 40.5476 223.189 40.5476 222.083C40.5476 221.078 40.1669 220.223 39.4039 219.52C38.6425 218.817 37.1182 218.114 34.8309 217.409C32.5451 216.706 29.2166 215.801 24.8468 214.696C16.8183 212.685 10.9243 209.795 7.16464 206.026C3.40496 202.258 1.52432 197.307 1.52432 191.176C1.52432 186.653 2.74443 182.506 5.18309 178.736C7.62176 174.968 11.1276 171.952 15.7007 169.691C20.2738 167.429 25.6603 166.298 31.8586 166.298C39.277 166.298 45.5778 167.656 50.7609 170.369C55.944 173.083 60.2618 176.35 63.7172 180.17L49.2366 192.985C46.7979 190.874 43.9265 189.165 40.624 187.858C37.3215 186.551 33.7392 185.898 29.8771 185.898C27.8451 185.898 26.1678 186.225 24.8468 186.878C23.5258 187.531 22.8653 188.461 22.8653 189.668C22.8653 190.774 23.7552 191.754 25.5333 192.608C27.3115 193.462 30.9947 194.542 36.5845 195.849C45.8316 198.061 52.5391 201.101 56.7054 204.971C60.8718 208.841 62.9558 214.043 62.9558 220.576C62.9558 225.4 61.6592 229.648 59.0692 233.316C56.4777 236.985 52.8693 239.849 48.2458 241.909C43.6223 243.97 38.3123 245 32.3157 245Z" fill="#F2A531"/>
<path d="M102.74 244.548C95.1178 244.548 88.4363 242.889 82.6952 239.573C76.954 236.256 72.4558 231.632 69.2038 225.702C65.9532 219.771 64.3264 213.037 64.3264 205.499C64.3264 198.061 65.9532 191.427 69.2038 185.597C72.4558 179.768 76.954 175.169 82.6952 171.801C88.4363 168.435 95.1178 166.75 102.74 166.75C111.378 166.75 118.797 168.811 124.995 172.932C131.195 177.053 135.615 182.582 138.257 189.517L116.155 199.468C114.834 196.653 113.156 194.467 111.124 192.909C109.091 191.351 106.398 190.573 103.045 190.573C99.0824 190.573 95.7539 191.929 93.0599 194.644C90.3674 197.357 89.0204 200.975 89.0204 205.499C89.0204 210.223 90.3674 213.917 93.0599 216.58C95.7539 219.243 99.0824 220.576 103.045 220.576C106.398 220.576 109.091 219.821 111.124 218.313C113.156 216.807 114.834 214.696 116.155 211.982L138.257 221.631C135.615 228.566 131.169 234.119 124.92 238.292C118.67 242.462 111.276 244.548 102.74 244.548Z" fill="#F2A531"/>
<path d="M142.069 242.588V139.913H166.763V242.588H142.069ZM188.409 242.588V200.071C188.409 196.251 187.799 193.739 186.58 192.532C185.36 191.325 183.582 190.724 181.244 190.724C179.516 190.724 177.688 191.05 175.757 191.703C173.826 192.357 171.92 193.311 170.04 194.568C168.161 195.824 166.306 197.306 164.476 199.015L156.246 183.034C158.785 180.219 161.758 177.581 165.163 175.119C168.567 172.655 172.277 170.645 176.29 169.088C180.305 167.53 184.546 166.75 189.019 166.75C193.998 166.75 198.062 167.604 201.213 169.313C204.363 171.022 206.803 173.308 208.529 176.174C210.257 179.038 211.451 182.279 212.112 185.898C212.772 189.517 213.103 193.285 213.103 197.207V242.588H188.409Z" fill="#F2A531"/>
<path d="M256.548 244.548C248.723 244.548 241.862 242.889 235.968 239.573C230.074 236.256 225.451 231.682 222.098 225.852C218.743 220.022 217.068 213.338 217.068 205.799C217.068 198.161 218.743 191.427 222.098 185.597C225.451 179.768 230.074 175.169 235.968 171.801C241.862 168.435 248.723 166.75 256.548 166.75C264.474 166.75 271.409 168.435 277.355 171.801C283.3 175.169 287.923 179.768 291.226 185.597C294.528 191.427 296.18 198.161 296.18 205.799C296.18 213.338 294.528 220.022 291.226 225.852C287.923 231.682 283.3 236.256 277.355 239.573C271.409 242.889 264.474 244.548 256.548 244.548ZM256.548 220.727C260.815 220.727 264.321 219.345 267.065 216.58C269.808 213.816 271.181 210.173 271.181 205.65C271.181 201.127 269.808 197.482 267.065 194.719C264.321 191.955 260.815 190.573 256.548 190.573C252.382 190.573 248.926 191.955 246.182 194.719C243.439 197.482 242.066 201.127 242.066 205.65C242.066 210.072 243.439 213.69 246.182 216.505C248.926 219.319 252.382 220.727 256.548 220.727Z" fill="#F2A531"/>
<path d="M336.575 244.548C328.75 244.548 321.889 242.889 315.995 239.573C310.101 236.256 305.478 231.682 302.125 225.852C298.77 220.022 297.095 213.338 297.095 205.799C297.095 198.161 298.77 191.427 302.125 185.597C305.478 179.768 310.101 175.169 315.995 171.801C321.889 168.435 328.75 166.75 336.575 166.75C344.501 166.75 351.436 168.435 357.382 171.801C363.327 175.169 367.951 179.768 371.253 185.597C374.556 191.427 376.207 198.161 376.207 205.799C376.207 213.338 374.556 220.022 371.253 225.852C367.951 231.682 363.327 236.256 357.382 239.573C351.436 242.889 344.501 244.548 336.575 244.548ZM336.575 220.727C340.842 220.727 344.348 219.345 347.093 216.58C349.836 213.816 351.209 210.173 351.209 205.65C351.209 201.127 349.836 197.482 347.093 194.719C344.348 191.955 340.842 190.573 336.575 190.573C332.409 190.573 328.953 191.955 326.209 194.719C323.466 197.482 322.093 201.127 322.093 205.65C322.093 210.072 323.466 213.69 326.209 216.505C328.953 219.319 332.409 220.727 336.575 220.727Z" fill="#F2A531"/>
<path d="M404.103 243.342C400.039 243.342 396.227 242.562 392.671 241.004C389.114 239.447 386.243 236.909 384.058 233.39C381.873 229.873 380.78 225.198 380.78 219.369V139.913H405.323V210.776C405.323 214.594 405.957 217.032 407.228 218.088C408.498 219.143 410.252 219.671 412.487 219.671V242.739C411.573 242.94 410.277 243.09 408.599 243.191C406.924 243.291 405.424 243.342 404.103 243.342Z" fill="#F2A531"/>
</svg>
