<svg width="293" height="134" viewBox="0 0 293 134" fill="none" xmlns="http://www.w3.org/2000/svg">
<path d="M17.6342 62.1161C14.2518 62.1161 11.1048 61.4988 8.193 60.2651C5.28206 59.0306 2.55135 56.8785 0 53.8071L7.15346 46.4841C9.09492 48.3491 10.9938 49.6934 12.8518 50.5161C14.709 51.3388 16.6363 51.7498 18.6328 51.7498C19.6307 51.7498 20.4625 51.5443 21.1283 51.1325C21.7933 50.7216 22.1261 50.2141 22.1261 49.6109C22.1261 49.0621 21.9184 48.5959 21.5021 48.2121C21.0866 47.8284 20.2548 47.4439 19.0066 47.0601C17.7593 46.6764 15.943 46.1829 13.5585 45.5797C9.17749 44.4822 5.96122 42.9052 3.90962 40.8488C1.85803 38.7915 0.831799 36.0906 0.831799 32.7452C0.831799 30.277 1.49759 28.0143 2.82833 25.957C4.15907 23.9006 6.07216 22.2551 8.56761 21.0206C11.0631 19.7869 14.0024 19.1697 17.3847 19.1697C21.4328 19.1697 24.871 19.9107 27.6994 21.3911C30.5277 22.8724 32.8838 24.6549 34.7694 26.7393L26.8676 33.7322C25.5368 32.5802 23.97 31.6477 22.1678 30.9347C20.3657 30.2217 18.4109 29.8652 16.3034 29.8652C15.1946 29.8652 14.2794 30.0435 13.5585 30.4C12.8377 30.7565 12.4772 31.264 12.4772 31.9225C12.4772 32.5257 12.9628 33.0605 13.9331 33.5267C14.9034 33.9929 16.9133 34.5821 19.9636 35.2951C25.0095 36.5024 28.6697 38.1611 30.9432 40.2728C33.2167 42.3845 34.3539 45.2232 34.3539 48.7881C34.3539 51.4205 33.6464 53.7377 32.2331 55.7397C30.8189 57.7417 28.8499 59.3054 26.3269 60.4294C23.804 61.5541 20.9064 62.1161 17.6342 62.1161Z" fill="#59A9FE"/>
<path d="M60.6395 61.8692C57.0903 61.8692 54.0125 61.0737 51.4061 59.4835C48.7996 57.8925 46.7756 55.534 45.3339 52.4082C43.8922 49.2814 43.1713 45.36 43.1713 40.6431C43.1713 36.2547 43.9064 32.4843 45.3756 29.3303C46.8448 26.1764 48.8973 23.7362 51.5312 22.0082C54.1651 20.2802 57.2288 19.4163 60.7221 19.4163C64.4381 19.4163 67.6962 20.3355 70.4961 22.1725C73.2969 24.0102 75.487 26.5197 77.0672 29.7008C78.6483 32.882 79.4384 36.5295 79.4384 40.6431C79.4384 44.7568 78.6341 48.4174 77.0255 51.6267C75.4178 54.8351 73.186 57.3446 70.3301 59.1543C67.4742 60.9639 64.2437 61.8692 60.6395 61.8692ZM37.5146 76.4317V20.4857H47.4964L50.9906 31.5105H50.2414V48.9522H50.9906V76.4317H37.5146ZM58.0606 49.0347C60.2232 49.0347 62.0395 48.2532 63.5087 46.6903C64.9788 45.1265 65.713 43.1113 65.713 40.6431C65.713 38.2294 64.9788 36.2142 63.5087 34.596C62.0395 32.9778 60.2232 32.169 58.0606 32.169C55.898 32.169 54.0684 32.9778 52.5708 34.596C51.0732 36.2142 50.3248 38.2294 50.3248 40.6431C50.3248 43.1113 51.0732 45.1265 52.5708 46.6903C54.0684 48.2532 55.898 49.0347 58.0606 49.0347Z" fill="#59A9FE"/>
<path d="M100.316 61.5399C96.2129 61.5399 92.622 60.69 89.5442 58.99C86.4664 57.2893 84.0686 54.8764 82.349 51.7496C80.6303 48.6237 79.771 44.921 79.771 40.6431C79.771 36.5295 80.6303 32.882 82.349 29.7008C84.0686 26.5197 86.4664 24.0102 89.5442 22.1725C92.622 20.3355 96.2129 19.4163 100.316 19.4163C104.586 19.4163 108.246 20.376 111.296 22.2962C114.346 24.2157 116.703 26.7524 118.367 29.9063C120.03 33.0603 120.862 36.5839 120.862 40.4781C120.862 41.3561 120.835 42.1516 120.779 42.8646C120.724 43.5776 120.64 44.1536 120.529 44.5918H89.8354V35.5417H110.132L108.967 38.5042C108.967 35.9262 108.274 33.8145 106.887 32.169C105.501 30.5236 103.366 29.7008 100.483 29.7008C97.8206 29.7008 95.714 30.4683 94.1605 32.004C92.6078 33.5397 91.8319 35.597 91.8319 38.1749V42.6996C91.8319 45.497 92.6637 47.65 94.3274 49.1585C95.991 50.6661 98.3196 51.4204 101.315 51.4204C103.699 51.4204 105.598 50.9682 107.012 50.0629C108.427 49.1585 109.605 47.9925 110.547 46.5665L119.531 51.3387C117.812 54.4646 115.289 56.9468 111.962 58.7837C108.634 60.6215 104.752 61.5399 100.316 61.5399Z" fill="#59A9FE"/>
<path d="M136.583 61.2106C134.365 61.2106 132.286 60.7856 130.345 59.9356C128.404 59.0857 126.838 57.7009 125.645 55.7807C124.453 53.8612 123.857 51.3105 123.857 48.1293V4.77197H137.249V43.4397C137.249 45.5242 137.595 46.8544 138.289 47.4304C138.982 48.0064 139.938 48.2944 141.158 48.2944V60.8821C140.659 60.9919 139.952 61.0736 139.037 61.1289C138.122 61.1833 137.304 61.2106 136.583 61.2106Z" fill="#59A9FE"/>
<path d="M157.212 61.2106C154.994 61.2106 152.914 60.7856 150.974 59.9356C149.033 59.0857 147.466 57.7009 146.274 55.7807C145.082 53.8612 144.485 51.3105 144.485 48.1293V4.77197H157.878V43.4397C157.878 45.5242 158.224 46.8544 158.917 47.4304C159.61 48.0064 160.567 48.2944 161.787 48.2944V60.8821C161.288 60.9919 160.581 61.0736 159.666 61.1289C158.751 61.1833 157.933 61.2106 157.212 61.2106Z" fill="#59A9FE"/>
<path d="M178.756 60.7998H165.197V20.4859H178.756V60.7998ZM164.199 7.73388C164.199 5.37543 164.92 3.49724 166.362 2.09851C167.804 0.699778 169.689 0 172.018 0C174.403 0 176.289 0.699778 177.674 2.09851C179.061 3.49724 179.754 5.37543 179.754 7.73388C179.754 9.98258 179.061 11.8063 177.674 13.205C176.289 14.6038 174.403 15.3027 172.018 15.3027C169.689 15.3027 167.804 14.6038 166.362 13.205C164.92 11.8063 164.199 9.98258 164.199 7.73388Z" fill="#59A9FE"/>
<path d="M209.949 19.4163C212.666 19.4163 214.884 19.8825 216.604 20.815C218.323 21.7475 219.653 22.9952 220.596 24.559C221.539 26.1219 222.191 27.8903 222.551 29.8651C222.911 31.8398 223.092 33.8962 223.092 36.036V60.7997H209.617V37.5989C209.617 35.5145 209.284 34.1429 208.618 33.4853C207.953 32.8267 206.983 32.4975 205.707 32.4975C204.764 32.4975 203.766 32.6765 202.712 33.033C201.659 33.3895 200.619 33.9102 199.593 34.596C198.567 35.2817 197.555 36.0905 196.557 37.0229L193.646 30.3585H197.805V60.7997H184.329V20.4857H194.311L196.973 28.7956L192.065 28.3021C193.452 26.7664 195.073 25.3264 196.931 23.983C198.789 22.6387 200.813 21.542 203.004 20.692C205.194 19.8412 207.509 19.4163 209.949 19.4163Z" fill="#59A9FE"/>
<path d="M245.8 77.3361C243.638 77.3361 241.405 77.0077 239.104 76.3491C236.803 75.6915 234.668 74.608 232.699 73.0995C230.731 71.591 229.136 69.5478 227.916 66.9698L227.167 65.4894L236.734 60.7997C238.064 62.8289 239.409 64.2829 240.767 65.1601C242.127 66.0373 243.859 66.4763 245.966 66.4763C248.24 66.4763 250.112 65.7502 251.581 64.2961C253.05 62.8429 253.785 60.6627 253.785 57.7555V46.1555H254.617V31.428H253.785L257.279 20.4857H267.26V54.7938C267.26 59.5652 266.429 63.6244 264.765 66.9698C263.101 70.316 260.675 72.88 257.487 74.6624C254.299 76.4449 250.403 77.3361 245.8 77.3361ZM243.97 58.7425C240.365 58.7425 237.149 57.9065 234.321 56.2338C231.493 54.5603 229.275 52.2431 227.666 49.2814C226.058 46.3197 225.254 42.9463 225.254 39.1619C225.254 35.3775 226.044 31.9908 227.625 29.0011C229.205 26.0122 231.382 23.6669 234.155 21.967C236.927 20.267 240.116 19.4163 243.72 19.4163C247.047 19.4163 249.959 20.253 252.455 21.9257C254.95 23.5984 256.905 25.9024 258.319 28.8368C259.732 31.7713 260.44 35.2132 260.44 39.1619C260.44 43.2755 259.761 46.8 258.402 49.7336C257.043 52.6681 255.13 54.9036 252.662 56.4393C250.194 57.975 247.297 58.7425 243.97 58.7425ZM246.715 47.06C248.933 47.06 250.777 46.3057 252.247 44.7972C253.716 43.2896 254.451 41.4106 254.451 39.1619C254.451 36.8034 253.716 34.87 252.247 33.3615C250.777 31.8538 248.933 31.0996 246.715 31.0996C244.441 31.0996 242.57 31.8538 241.1 33.3615C239.631 34.87 238.896 36.8034 238.896 39.1619C238.896 41.4106 239.631 43.2896 241.1 44.7972C242.57 46.3057 244.441 47.06 246.715 47.06Z" fill="#59A9FE"/>
<path d="M283.933 61.7867C282.27 61.7867 280.745 61.3757 279.358 60.553C277.972 59.7302 276.877 58.6336 276.073 57.2621C275.268 55.8906 274.867 54.4101 274.867 52.8191C274.867 51.1737 275.268 49.6792 276.073 48.3357C276.877 46.9915 277.972 45.908 279.358 45.0852C280.745 44.2625 282.242 43.8516 283.85 43.8516C285.625 43.8516 287.191 44.2625 288.55 45.0852C289.909 45.908 290.99 46.9915 291.794 48.3357C292.598 49.6792 293 51.1737 293 52.8191C293 54.4101 292.598 55.8906 291.794 57.2621C290.99 58.6336 289.909 59.7302 288.55 60.553C287.191 61.3757 285.652 61.7867 283.933 61.7867Z" fill="#FE645A"/>
<path d="M17.6342 133.692C14.2518 133.692 11.1048 133.075 8.193 131.841C5.28206 130.608 2.55135 128.455 0 125.383L7.15346 118.06C9.09492 119.925 10.9938 121.27 12.8518 122.092C14.709 122.915 16.6363 123.326 18.6328 123.326C19.6307 123.326 20.4625 123.121 21.1283 122.709C21.7933 122.298 22.1261 121.79 22.1261 121.187C22.1261 120.638 21.9184 120.172 21.5021 119.788C21.0866 119.405 20.2548 119.021 19.0066 118.636C17.7593 118.253 15.943 117.759 13.5585 117.156C9.17749 116.058 5.96122 114.481 3.90962 112.425C1.85803 110.369 0.831799 107.667 0.831799 104.321C0.831799 101.853 1.49759 99.5905 2.82833 97.5332C4.15907 95.4768 6.07216 93.8313 8.56761 92.5976C11.0631 91.3631 14.0024 90.7458 17.3847 90.7458C21.4328 90.7458 24.871 91.4869 27.6994 92.9673C30.5277 94.4486 32.8838 96.231 34.7694 98.3155L26.8676 105.308C25.5368 104.156 23.97 103.224 22.1678 102.511C20.3657 101.798 18.4109 101.441 16.3034 101.441C15.1946 101.441 14.2794 101.62 13.5585 101.976C12.8377 102.333 12.4772 102.84 12.4772 103.499C12.4772 104.102 12.9628 104.637 13.9331 105.103C14.9034 105.569 16.9133 106.158 19.9636 106.871C25.0095 108.079 28.6697 109.737 30.9432 111.849C33.2167 113.961 34.3539 116.799 34.3539 120.364C34.3539 122.997 33.6464 125.315 32.2331 127.317C30.8189 129.319 28.8499 130.882 26.3269 132.006C23.804 133.13 20.9064 133.692 17.6342 133.692Z" fill="#F2A531"/>
<path d="M56.0632 133.446C51.9042 133.446 48.2582 132.54 45.1253 130.731C41.9925 128.921 39.5379 126.397 37.7633 123.162C35.9895 119.925 35.1018 116.251 35.1018 112.137C35.1018 108.079 35.9895 104.458 37.7633 101.277C39.5379 98.0961 41.9925 95.5866 45.1253 93.7489C48.2582 91.912 51.9042 90.9927 56.0632 90.9927C60.7772 90.9927 64.8253 92.1174 68.2076 94.3661C71.5908 96.6148 74.0028 99.6318 75.4445 103.416L63.3836 108.846C62.6627 107.31 61.7475 106.117 60.6387 105.267C59.529 104.417 58.0598 103.992 56.2301 103.992C54.0676 103.992 52.2512 104.732 50.7812 106.214C49.3119 107.694 48.5769 109.669 48.5769 112.137C48.5769 114.715 49.3119 116.731 50.7812 118.184C52.2512 119.637 54.0676 120.364 56.2301 120.364C58.0598 120.364 59.529 119.953 60.6387 119.13C61.7475 118.308 62.6627 117.156 63.3836 115.675L75.4445 120.94C74.0028 124.725 71.5766 127.755 68.1667 130.032C64.756 132.308 60.7213 133.446 56.0632 133.446Z" fill="#F2A531"/>
<path d="M77.5249 132.376V76.3484H91V132.376H77.5249ZM102.811 132.376V109.175C102.811 107.091 102.479 105.72 101.814 105.062C101.148 104.403 100.178 104.075 98.9018 104.075C97.9591 104.075 96.9612 104.253 95.9075 104.609C94.8537 104.966 93.8142 105.487 92.7879 106.172C91.7626 106.858 90.7505 107.667 89.7519 108.599L85.2607 99.8784C86.6465 98.3427 88.2684 96.9027 90.1265 95.5593C91.9845 94.215 94.0086 93.1183 96.1987 92.2684C98.3896 91.4184 100.704 90.9926 103.144 90.9926C105.862 90.9926 108.079 91.4588 109.799 92.3913C111.518 93.3238 112.849 94.5715 113.791 96.1353C114.734 97.6983 115.385 99.4667 115.746 101.441C116.106 103.416 116.287 105.473 116.287 107.612V132.376H102.811Z" fill="#F2A531"/>
<path d="M139.994 133.446C135.724 133.446 131.98 132.54 128.764 130.731C125.548 128.921 123.025 126.425 121.195 123.244C119.365 120.062 118.45 116.415 118.45 112.301C118.45 108.133 119.365 104.458 121.195 101.277C123.025 98.0961 125.548 95.5866 128.764 93.7489C131.98 91.912 135.724 90.9927 139.994 90.9927C144.319 90.9927 148.104 91.912 151.348 93.7489C154.592 95.5866 157.115 98.0961 158.917 101.277C160.719 104.458 161.62 108.133 161.62 112.301C161.62 116.415 160.719 120.062 158.917 123.244C157.115 126.425 154.592 128.921 151.348 130.731C148.104 132.54 144.319 133.446 139.994 133.446ZM139.994 120.447C142.323 120.447 144.236 119.693 145.733 118.184C147.23 116.676 147.979 114.688 147.979 112.22C147.979 109.751 147.23 107.763 145.733 106.255C144.236 104.746 142.323 103.992 139.994 103.992C137.72 103.992 135.835 104.746 134.337 106.255C132.841 107.763 132.091 109.751 132.091 112.22C132.091 114.632 132.841 116.607 134.337 118.143C135.835 119.679 137.72 120.447 139.994 120.447Z" fill="#F2A531"/>
<path d="M183.663 133.446C179.393 133.446 175.65 132.54 172.433 130.731C169.217 128.921 166.694 126.425 164.865 123.244C163.034 120.062 162.12 116.415 162.12 112.301C162.12 108.133 163.034 104.458 164.865 101.277C166.694 98.0961 169.217 95.5866 172.433 93.7489C175.65 91.912 179.393 90.9927 183.663 90.9927C187.989 90.9927 191.773 91.912 195.018 93.7489C198.262 95.5866 200.785 98.0961 202.587 101.277C204.389 104.458 205.29 108.133 205.29 112.301C205.29 116.415 204.389 120.062 202.587 123.244C200.785 126.425 198.262 128.921 195.018 130.731C191.773 132.54 187.989 133.446 183.663 133.446ZM183.663 120.447C185.992 120.447 187.905 119.693 189.403 118.184C190.9 116.676 191.649 114.688 191.649 112.22C191.649 109.751 190.9 107.763 189.403 106.255C187.905 104.746 185.992 103.992 183.663 103.992C181.39 103.992 179.504 104.746 178.007 106.255C176.51 107.763 175.761 109.751 175.761 112.22C175.761 114.632 176.51 116.607 178.007 118.143C179.504 119.679 181.39 120.447 183.663 120.447Z" fill="#F2A531"/>
<path d="M220.512 132.788C218.295 132.788 216.215 132.362 214.274 131.512C212.333 130.662 210.766 129.277 209.574 127.357C208.382 125.438 207.785 122.887 207.785 119.706V76.3484H221.178V115.017C221.178 117.101 221.524 118.431 222.217 119.007C222.911 119.583 223.868 119.871 225.088 119.871V132.459C224.589 132.568 223.881 132.65 222.966 132.705C222.051 132.76 221.233 132.788 220.512 132.788Z" fill="#F2A531"/>
</svg>
