<svg width="116" height="72" viewBox="0 0 116 72" fill="none" xmlns="http://www.w3.org/2000/svg">
<path d="M6.98145 29.5951C5.64237 29.5951 4.39643 29.301 3.24365 28.7131C2.09119 28.1248 1.01009 27.0993 0 25.6357L2.83209 22.1462C3.60072 23.0349 4.35251 23.6755 5.08811 24.0675C5.82338 24.4596 6.58639 24.6554 7.37683 24.6554C7.77188 24.6554 8.10121 24.5575 8.3648 24.3612C8.62806 24.1654 8.75984 23.9236 8.75984 23.6361C8.75984 23.3746 8.6776 23.1525 8.51278 22.9696C8.34828 22.7868 8.01896 22.6035 7.52482 22.4207C7.031 22.2378 6.31191 22.0027 5.36788 21.7152C3.63341 21.1922 2.36007 20.4408 1.54784 19.4609C0.735604 18.4805 0.329313 17.1935 0.329313 15.5994C0.329313 14.4232 0.592903 13.345 1.11975 12.3647C1.6466 11.3848 2.404 10.6007 3.39196 10.0124C4.37992 9.42454 5.54361 9.1304 6.88269 9.1304C8.48536 9.1304 9.84657 9.48352 10.9663 10.189C12.0861 10.8948 13.0189 11.7442 13.7654 12.7375L10.637 16.0697C10.1102 15.5207 9.48983 15.0764 8.77636 14.7366C8.06288 14.3969 7.28897 14.227 6.4546 14.227C6.01562 14.227 5.65326 14.312 5.36788 14.4818C5.08249 14.6517 4.9398 14.8935 4.9398 15.2073C4.9398 15.4948 5.13204 15.7496 5.51619 15.9718C5.90034 16.1939 6.69606 16.4747 7.90367 16.8144C9.9014 17.3897 11.3505 18.1801 12.2506 19.1864C13.1507 20.1927 13.6009 21.5454 13.6009 23.2441C13.6009 24.4985 13.3208 25.6027 12.7612 26.5566C12.2014 27.5106 11.4218 28.2558 10.423 28.7913C9.4241 29.3273 8.27693 29.5951 6.98145 29.5951Z" fill="#59A9FE"/>
<path d="M24.0072 29.4774C22.602 29.4774 21.3835 29.0983 20.3516 28.3405C19.3197 27.5824 18.5184 26.4586 17.9476 24.969C17.3768 23.4791 17.0914 21.6105 17.0914 19.3628C17.0914 17.2716 17.3824 15.475 17.9641 13.972C18.5458 12.4691 19.3584 11.3064 20.4011 10.483C21.4439 9.65954 22.6568 9.24784 24.0399 9.24784C25.5111 9.24784 26.8009 9.68589 27.9095 10.5612C29.0183 11.4369 29.8854 12.6327 30.511 14.1486C31.1369 15.6645 31.4497 17.4026 31.4497 19.3628C31.4497 21.323 31.1313 23.0674 30.4945 24.5966C29.858 26.1255 28.9744 27.3213 27.8437 28.1837C26.7131 29.046 25.4341 29.4774 24.0072 29.4774ZM14.8519 36.4166V9.75745H18.8038L20.1871 15.011H19.8905V23.3222H20.1871V36.4166H14.8519ZM22.9862 23.3615C23.8423 23.3615 24.5614 22.9891 25.1431 22.2444C25.7251 21.4992 26.0158 20.5389 26.0158 19.3628C26.0158 18.2126 25.7251 17.2523 25.1431 16.4812C24.5614 15.7101 23.8423 15.3247 22.9862 15.3247C22.13 15.3247 21.4056 15.7101 20.8127 16.4812C20.2198 17.2523 19.9235 18.2126 19.9235 19.3628C19.9235 20.5389 20.2198 21.4992 20.8127 22.2444C21.4056 22.9891 22.13 23.3615 22.9862 23.3615Z" fill="#59A9FE"/>
<path d="M39.7157 29.3205C38.0912 29.3205 36.6696 28.9155 35.451 28.1054C34.2325 27.295 33.2832 26.1452 32.6024 24.6552C31.922 23.1657 31.5818 21.4013 31.5818 19.3628C31.5818 17.4026 31.922 15.6645 32.6024 14.1486C33.2832 12.6327 34.2325 11.4369 35.451 10.5612C36.6696 9.68589 38.0912 9.24784 39.7157 9.24784C41.4062 9.24784 42.8553 9.70515 44.0626 10.6202C45.2702 11.5348 46.2033 12.7436 46.862 14.2465C47.5206 15.7494 47.8499 17.4285 47.8499 19.2841C47.8499 19.7025 47.839 20.0816 47.8169 20.4214C47.7951 20.7611 47.7621 21.0356 47.7181 21.2444H35.5663V16.9319H43.6018L43.1407 18.3436C43.1407 17.1151 42.8662 16.1088 42.3172 15.3247C41.7686 14.5407 40.9233 14.1486 39.7818 14.1486C38.7277 14.1486 37.8937 14.5143 37.2787 15.2461C36.6639 15.9779 36.3568 16.9582 36.3568 18.1867V20.3427C36.3568 21.6758 36.6861 22.7017 37.3447 23.4205C38.0034 24.1389 38.9253 24.4983 40.1111 24.4983C41.0551 24.4983 41.8069 24.2829 42.3668 23.8515C42.9266 23.4205 43.393 22.8649 43.7663 22.1854L47.3231 24.4594C46.6423 25.9489 45.6434 27.1318 44.3262 28.0071C43.0089 28.8828 41.472 29.3205 39.7157 29.3205Z" fill="#59A9FE"/>
<path d="M54.0741 29.1635C53.1958 29.1635 52.3727 28.961 51.6044 28.556C50.8357 28.151 50.2157 27.4911 49.7437 26.5761C49.2717 25.6615 49.0355 24.446 49.0355 22.9301V2.2696H54.3377V20.6954C54.3377 21.6887 54.4748 22.3226 54.7492 22.5971C55.0237 22.8715 55.4023 23.0088 55.8852 23.0088V29.007C55.6876 29.0593 55.4079 29.0983 55.0455 29.1246C54.6832 29.1506 54.3595 29.1635 54.0741 29.1635Z" fill="#59A9FE"/>
<path d="M62.2409 29.1635C61.363 29.1635 60.5395 28.961 59.7712 28.556C59.0029 28.151 58.3826 27.4911 57.9106 26.5761C57.4386 25.6615 57.2024 24.446 57.2024 22.9301V2.2696H62.5045V20.6954C62.5045 21.6887 62.6416 22.3226 62.9161 22.5971C63.1906 22.8715 63.5695 23.0088 64.0524 23.0088V29.007C63.8548 29.0593 63.5748 29.0983 63.2124 29.1246C62.8504 29.1506 62.5263 29.1635 62.2409 29.1635Z" fill="#59A9FE"/>
<path d="M70.7701 28.9679H65.4023V9.75757H70.7701V28.9679ZM65.0072 3.68104C65.0072 2.5572 65.2926 1.66221 65.8634 0.99569C66.4342 0.329171 67.1807 -0.00428486 68.1029 -0.00428486C69.0469 -0.00428486 69.7934 0.329171 70.3421 0.99569C70.891 1.66221 71.1655 2.5572 71.1655 3.68104C71.1655 4.75258 70.891 5.62161 70.3421 6.28813C69.7934 6.95465 69.0469 7.28771 68.1029 7.28771C67.1807 7.28771 66.4342 6.95465 65.8634 6.28813C65.2926 5.62161 65.0072 4.75258 65.0072 3.68104Z" fill="#59A9FE"/>
<path d="M83.1196 9.24784C84.1951 9.24784 85.0734 9.47 85.7542 9.91435C86.4346 10.3587 86.9615 10.9533 87.3347 11.6984C87.708 12.4432 87.966 13.2859 88.1087 14.2269C88.2513 15.1679 88.3227 16.1478 88.3227 17.1674V28.9677H82.9878V17.9122C82.9878 16.9189 82.856 16.2653 82.5925 15.9519C82.3292 15.6382 81.945 15.4813 81.44 15.4813C81.0667 15.4813 80.6717 15.5666 80.2545 15.7365C79.8373 15.9063 79.4258 16.1545 79.0195 16.4812C78.6132 16.808 78.2125 17.1934 77.8175 17.6377L76.665 14.462H78.3116V28.9677H72.9764V9.75745H76.9283L77.9823 13.7172L76.0391 13.4821C76.5881 12.7503 77.2302 12.0641 77.9658 11.4239C78.7011 10.7834 79.5024 10.2608 80.3698 9.85576C81.2369 9.45034 82.1535 9.24784 83.1196 9.24784Z" fill="#59A9FE"/>
<path d="M97.3133 36.8476C96.4571 36.8476 95.5732 36.6911 94.6623 36.3773C93.7513 36.0639 92.906 35.5476 92.1265 34.8288C91.3472 34.11 90.716 33.1363 90.2331 31.9079L89.9365 31.2025L93.7238 28.9677C94.2507 29.9347 94.7831 30.6276 95.3209 31.0456C95.859 31.4636 96.545 31.6728 97.3791 31.6728C98.2791 31.6728 99.0204 31.3267 99.602 30.6338C100.184 29.9414 100.475 28.9025 100.475 27.5171V21.9895H100.804V14.9716H100.475L101.858 9.75745H105.81V26.1058C105.81 28.3795 105.48 30.3138 104.822 31.9079C104.163 33.5024 103.202 34.7242 101.94 35.5736C100.678 36.4229 99.1356 36.8476 97.3133 36.8476ZM96.5889 27.9874C95.1617 27.9874 93.8883 27.5891 92.7686 26.792C91.6491 25.9946 90.7708 24.8904 90.134 23.4791C89.4975 22.0678 89.1791 20.4603 89.1791 18.657C89.1791 16.8536 89.4919 15.2398 90.1178 13.8152C90.7434 12.3909 91.6052 11.2733 92.7028 10.4633C93.8005 9.65324 95.0629 9.24784 96.4898 9.24784C97.8071 9.24784 98.9599 9.64656 99.9479 10.4436C100.936 11.2407 101.71 12.3386 102.27 13.7369C102.829 15.1352 103.109 16.7754 103.109 18.657C103.109 20.6172 102.84 22.2967 102.302 23.6946C101.765 25.0929 101.007 26.1581 100.03 26.8899C99.0531 27.6217 97.9059 27.9874 96.5889 27.9874ZM97.6757 22.4205C98.5536 22.4205 99.2836 22.0611 99.8656 21.3423C100.447 20.6239 100.738 19.7285 100.738 18.657C100.738 17.5331 100.447 16.6118 99.8656 15.893C99.2836 15.1745 98.5536 14.8151 97.6757 14.8151C96.7752 14.8151 96.0343 15.1745 95.4527 15.893C94.871 16.6118 94.58 17.5331 94.58 18.657C94.58 19.7285 94.871 20.6239 95.4527 21.3423C96.0343 22.0611 96.7752 22.4205 97.6757 22.4205Z" fill="#59A9FE"/>
<path d="M112.41 29.438C111.752 29.438 111.148 29.2422 110.599 28.8501C110.05 28.4581 109.617 27.9355 109.298 27.282C108.98 26.6284 108.821 25.923 108.821 25.1648C108.821 24.3807 108.98 23.6686 109.298 23.0284C109.617 22.3879 110.05 21.8716 110.599 21.4795C111.148 21.0875 111.741 20.8916 112.377 20.8916C113.08 20.8916 113.7 21.0875 114.238 21.4795C114.776 21.8716 115.204 22.3879 115.522 23.0284C115.841 23.6686 116 24.3807 116 25.1648C116 25.923 115.841 26.6284 115.522 27.282C115.204 27.9355 114.776 28.4581 114.238 28.8501C113.7 29.2422 113.091 29.438 112.41 29.438Z" fill="#AECC39"/>
<path d="M6.98145 71.9896C5.64237 71.9896 4.39643 71.6955 3.24365 71.1076C2.09119 70.5198 1.01009 69.4938 0 68.0302L2.83209 64.5407C3.60072 65.4294 4.35251 66.07 5.08811 66.462C5.82338 66.8541 6.58639 67.0499 7.37683 67.0499C7.77188 67.0499 8.10121 66.952 8.3648 66.7558C8.62806 66.56 8.75984 66.3181 8.75984 66.0307C8.75984 65.7692 8.6776 65.547 8.51278 65.3642C8.34828 65.1813 8.01896 64.9985 7.52482 64.8152C7.031 64.6324 6.31191 64.3972 5.36788 64.1098C3.63341 63.5868 2.36007 62.8353 1.54784 61.8554C0.735604 60.8755 0.329313 59.5881 0.329313 57.9939C0.329313 56.8178 0.592903 55.7396 1.11975 54.7592C1.6466 53.7793 2.404 52.9952 3.39196 52.4073C4.37992 51.8191 5.54361 51.5249 6.88269 51.5249C8.48536 51.5249 9.84657 51.8781 10.9663 52.5835C12.0861 53.2894 13.0189 54.1387 13.7654 55.132L10.637 58.4642C10.1102 57.9153 9.48983 57.4709 8.77636 57.1312C8.06288 56.7914 7.28897 56.6216 6.4546 56.6216C6.01562 56.6216 5.65326 56.7065 5.36788 56.8764C5.08249 57.0462 4.9398 57.2881 4.9398 57.6019C4.9398 57.8893 5.13204 58.1441 5.51619 58.3663C5.90034 58.5885 6.69606 58.8692 7.90367 59.209C9.9014 59.7843 11.3505 60.5747 12.2506 61.5809C13.1507 62.5872 13.6009 63.9399 13.6009 65.6386C13.6009 66.893 13.3208 67.9976 12.7612 68.9516C12.2014 69.9055 11.4218 70.6503 10.423 71.1859C9.4241 71.7218 8.27693 71.9896 6.98145 71.9896Z" fill="#FE645A"/>
<path d="M22.1959 71.8721C20.5493 71.8721 19.1059 71.4407 17.8656 70.5784C16.6253 69.716 15.6535 68.5136 14.9509 66.9717C14.2487 65.4295 13.8972 63.6785 13.8972 61.7182C13.8972 59.7843 14.2487 58.0592 14.9509 56.5434C15.6535 55.0275 16.6253 53.8317 17.8656 52.9559C19.1059 52.0806 20.5493 51.6426 22.1959 51.6426C24.0622 51.6426 25.6649 52.1785 27.004 53.2501C28.3434 54.3216 29.2983 55.7593 29.8691 57.5626L25.0941 60.15C24.8087 59.4182 24.4464 58.8496 24.0074 58.4446C23.5681 58.0396 22.9864 57.8371 22.262 57.8371C21.4058 57.8371 20.6868 58.1898 20.1048 58.8956C19.5231 59.6011 19.2321 60.5421 19.2321 61.7182C19.2321 62.9467 19.5231 63.9073 20.1048 64.5998C20.6868 65.2923 21.4058 65.6387 22.262 65.6387C22.9864 65.6387 23.5681 65.4425 24.0074 65.0504C24.4464 64.6588 24.8087 64.1098 25.0941 63.404L29.8691 65.9132C29.2983 67.7165 28.3377 69.1604 26.9878 70.2453C25.6375 71.3299 24.0401 71.8721 22.1959 71.8721Z" fill="#FE645A"/>
<path d="M30.6924 71.3625V44.6643H36.0272V71.3625H30.6924ZM40.7035 71.3625V60.3069C40.7035 59.3136 40.5717 58.6605 40.3084 58.3467C40.0448 58.0329 39.6607 57.8764 39.1556 57.8764C38.7824 57.8764 38.3873 57.9613 37.9701 58.1312C37.5529 58.301 37.1414 58.5492 36.7351 58.8759C36.3291 59.2027 35.9285 59.5881 35.5331 60.0324L33.755 55.8768C34.3037 55.145 34.9458 54.4588 35.6814 53.8186C36.417 53.1781 37.2183 52.6555 38.0854 52.2505C38.9528 51.8454 39.8691 51.6425 40.8352 51.6425C41.9111 51.6425 42.789 51.8647 43.4698 52.3091C44.1502 52.7534 44.6774 53.348 45.0503 54.0931C45.4236 54.8379 45.6816 55.6806 45.8243 56.6216C45.967 57.5626 46.0383 58.5425 46.0383 59.5621V71.3625H40.7035Z" fill="#FE645A"/>
<path d="M55.4243 71.8721C53.7338 71.8721 52.2517 71.4407 50.9783 70.5784C49.705 69.716 48.7061 68.5265 47.9817 67.0107C47.257 65.4948 46.895 63.7567 46.895 61.7965C46.895 59.8103 47.257 58.0592 47.9817 56.5434C48.7061 55.0275 49.705 53.8317 50.9783 52.9559C52.2517 52.0806 53.7338 51.6426 55.4243 51.6426C57.1366 51.6426 58.6349 52.0806 59.9195 52.9559C61.2038 53.8317 62.2026 55.0275 62.9161 56.5434C63.6296 58.0592 63.9863 59.8103 63.9863 61.7965C63.9863 63.7567 63.6296 65.4948 62.9161 67.0107C62.2026 68.5265 61.2038 69.716 59.9195 70.5784C58.6349 71.4407 57.1366 71.8721 55.4243 71.8721ZM55.4243 65.678C56.3462 65.678 57.1036 65.3186 57.6965 64.5998C58.2891 63.881 58.5857 62.9337 58.5857 61.7575C58.5857 60.5814 58.2891 59.6337 57.6965 58.9153C57.1036 58.1965 56.3462 57.8371 55.4243 57.8371C54.5242 57.8371 53.7777 58.1965 53.1848 58.9153C52.5922 59.6337 52.2956 60.5814 52.2956 61.7575C52.2956 62.9073 52.5922 63.8483 53.1848 64.5801C53.7777 65.3119 54.5242 65.678 55.4243 65.678Z" fill="#FE645A"/>
<path d="M72.7134 71.8721C71.0228 71.8721 69.5407 71.4407 68.2674 70.5784C66.994 69.716 65.9952 68.5265 65.2708 67.0107C64.5461 65.4948 64.1841 63.7567 64.1841 61.7965C64.1841 59.8103 64.5461 58.0592 65.2708 56.5434C65.9952 55.0275 66.994 53.8317 68.2674 52.9559C69.5407 52.0806 71.0228 51.6426 72.7134 51.6426C74.4257 51.6426 75.924 52.0806 77.2086 52.9559C78.4928 53.8317 79.4917 55.0275 80.2052 56.5434C80.9186 58.0592 81.2754 59.8103 81.2754 61.7965C81.2754 63.7567 80.9186 65.4948 80.2052 67.0107C79.4917 68.5265 78.4928 69.716 77.2086 70.5784C75.924 71.4407 74.4257 71.8721 72.7134 71.8721ZM72.7134 65.678C73.6353 65.678 74.3927 65.3186 74.9856 64.5998C75.5782 63.881 75.8748 62.9337 75.8748 61.7575C75.8748 60.5814 75.5782 59.6337 74.9856 58.9153C74.3927 58.1965 73.6353 57.8371 72.7134 57.8371C71.8133 57.8371 71.0668 58.1965 70.4739 58.9153C69.8813 59.6337 69.5847 60.5814 69.5847 61.7575C69.5847 62.9073 69.8813 63.8483 70.4739 64.5801C71.0668 65.3119 71.8133 65.678 72.7134 65.678Z" fill="#FE645A"/>
<path d="M87.3019 71.5587C86.4239 71.5587 85.6005 71.3558 84.8321 70.9508C84.0638 70.5457 83.4435 69.8859 82.9715 68.9709C82.4995 68.0562 82.2633 66.8407 82.2633 65.3249V44.6643H87.5655V63.0905C87.5655 64.0834 87.7025 64.7173 87.977 64.9918C88.2515 65.2663 88.6304 65.4035 89.1133 65.4035V71.4018C88.9158 71.4541 88.6357 71.493 88.2733 71.5194C87.9113 71.5453 87.5873 71.5587 87.3019 71.5587Z" fill="#FE645A"/>
</svg>
